<svg id="Layer_1" data-name="Layer 1" xmlns="http://www.w3.org/2000/svg" xmlns:xlink="http://www.w3.org/1999/xlink" viewBox="0 0 1076.87 718.21">
  <defs>
    <linearGradient id="linear-gradient" x1="391.16" y1="-55.64" x2="701.98" y2="825.34" gradientUnits="userSpaceOnUse">
      <stop offset="0" stop-color="#dae3fe"/>
      <stop offset="1" stop-color="#e9effd"/>
    </linearGradient>
    <linearGradient id="linear-gradient-2" x1="526" y1="341.71" x2="524.64" y2="680.47" gradientUnits="userSpaceOnUse">
      <stop offset="0" stop-color="#ff928e"/>
      <stop offset="1" stop-color="#feb3b1"/>
    </linearGradient>
    <linearGradient id="linear-gradient-3" x1="522.38" y1="628.89" x2="534.98" y2="837.68" gradientUnits="userSpaceOnUse">
      <stop offset="0" stop-color="#4042e2"/>
      <stop offset="1" stop-color="#4f52ff"/>
    </linearGradient>
    <linearGradient id="linear-gradient-4" x1="513.49" y1="64.52" x2="529.82" y2="438.64" xlink:href="#linear-gradient-2"/>
    <linearGradient id="linear-gradient-5" x1="636.68" y1="59.14" x2="653.01" y2="433.27" xlink:href="#linear-gradient-2"/>
    <linearGradient id="linear-gradient-6" x1="-9399.79" y1="13.89" x2="-9383.47" y2="388.02" gradientTransform="matrix(-1, 0, 0, 1, -8991.37, 0)" xlink:href="#linear-gradient-2"/>
    <linearGradient id="linear-gradient-7" x1="-13185.91" y1="424.54" x2="-13154.74" y2="502.74" gradientTransform="matrix(-1, 0, 0, 1, -12982.07, 0)" gradientUnits="userSpaceOnUse">
      <stop offset="0" stop-color="#09005d"/>
      <stop offset="1" stop-color="#1a0f91"/>
    </linearGradient>
    <linearGradient id="linear-gradient-8" x1="-13210.63" y1="472.75" x2="-13185.32" y2="530.33" gradientTransform="matrix(-1, 0, 0, 1, -12982.07, 0)" gradientUnits="userSpaceOnUse">
      <stop offset="0" stop-color="#a22b25"/>
      <stop offset="1" stop-color="#c0423c"/>
    </linearGradient>
    <linearGradient id="linear-gradient-9" x1="-13132.29" y1="672.89" x2="-13120.67" y2="672.89" gradientTransform="matrix(-1, 0, 0, 1, -12982.07, 0)" gradientUnits="userSpaceOnUse">
      <stop offset="0" stop-color="#a737d5"/>
      <stop offset="1" stop-color="#ef497a"/>
    </linearGradient>
    <linearGradient id="linear-gradient-10" x1="-13181.37" y1="718.7" x2="-13164.65" y2="523.32" xlink:href="#linear-gradient-8"/>
    <linearGradient id="linear-gradient-11" x1="-13186.25" y1="670.77" x2="-13167.46" y2="670.77" xlink:href="#linear-gradient-9"/>
    <linearGradient id="linear-gradient-12" x1="-13147.74" y1="721.6" x2="-13131.02" y2="526.18" xlink:href="#linear-gradient-8"/>
    <linearGradient id="linear-gradient-13" x1="250.32" y1="492.24" x2="43.53" y2="635.09" gradientUnits="userSpaceOnUse">
      <stop offset="0" stop-color="#fe7062"/>
      <stop offset="1" stop-color="#ff928e"/>
    </linearGradient>
    <linearGradient id="linear-gradient-14" x1="-13134.91" y1="525.48" x2="-13176.71" y2="592.35" gradientTransform="matrix(-1, 0, 0, 1, -12982.07, 0)" xlink:href="#linear-gradient-3"/>
    <linearGradient id="linear-gradient-15" x1="-13183.2" y1="526.12" x2="-13180.06" y2="503.15" xlink:href="#linear-gradient-8"/>
    <linearGradient id="linear-gradient-16" x1="175.55" y1="555.16" x2="191.75" y2="489.16" gradientTransform="matrix(1, 0, 0, 1, 0, 0)" xlink:href="#linear-gradient-8"/>
    <linearGradient id="linear-gradient-17" x1="-13191.13" y1="496.5" x2="-13163.73" y2="447.74" xlink:href="#linear-gradient-8"/>
    <linearGradient id="linear-gradient-18" x1="-13185.24" y1="454.04" x2="-13171.54" y2="488.4" xlink:href="#linear-gradient-7"/>
    <linearGradient id="linear-gradient-19" x1="-13185.3" y1="499.78" x2="-13157.9" y2="451.02" xlink:href="#linear-gradient-8"/>
    <linearGradient id="linear-gradient-20" x1="-13215.63" y1="474.94" x2="-13190.32" y2="532.53" xlink:href="#linear-gradient-8"/>
    <linearGradient id="linear-gradient-21" x1="-13227.76" y1="453.66" x2="-13221.65" y2="453.66" xlink:href="#linear-gradient-8"/>
    <linearGradient id="linear-gradient-22" x1="819.64" y1="507.47" x2="743.76" y2="602.39" xlink:href="#linear-gradient-13"/>
    <linearGradient id="linear-gradient-23" x1="-9647.06" y1="861.32" x2="-9622.27" y2="799.05" gradientTransform="matrix(-1, 0, 0, 1, -8763.93, 0)" xlink:href="#linear-gradient-7"/>
    <linearGradient id="linear-gradient-24" x1="-9584.35" y1="665.03" x2="-9577.77" y2="665.03" gradientTransform="matrix(-1, 0, 0, 1, -8763.93, 0)" xlink:href="#linear-gradient-2"/>
    <linearGradient id="linear-gradient-25" x1="836.6" y1="570.9" x2="803.65" y2="663.1" gradientTransform="matrix(1, 0, 0, 1, 0, 0)" xlink:href="#linear-gradient-7"/>
    <linearGradient id="linear-gradient-26" x1="-9674.09" y1="850.56" x2="-9649.31" y2="788.29" gradientTransform="matrix(-1, 0, 0, 1, -8763.93, 0)" xlink:href="#linear-gradient-7"/>
    <linearGradient id="linear-gradient-27" x1="-9608.08" y1="664.69" x2="-9602.39" y2="664.69" gradientTransform="matrix(-1, 0, 0, 1, -8763.93, 0)" xlink:href="#linear-gradient-2"/>
    <linearGradient id="linear-gradient-28" x1="845.86" y1="574.21" x2="812.91" y2="666.41" gradientTransform="matrix(1, 0, 0, 1, 0, 0)" xlink:href="#linear-gradient-7"/>
    <linearGradient id="linear-gradient-29" x1="839.95" y1="523.71" x2="764.07" y2="618.63" xlink:href="#linear-gradient-13"/>
    <linearGradient id="linear-gradient-30" x1="847.41" y1="529.67" x2="771.53" y2="624.59" xlink:href="#linear-gradient-13"/>
    <linearGradient id="linear-gradient-31" x1="821.71" y1="549.4" x2="861.31" y2="539.13" xlink:href="#linear-gradient-2"/>
    <linearGradient id="linear-gradient-32" x1="802.3" y1="554.65" x2="809.56" y2="513.84" gradientTransform="matrix(1, 0, 0, 1, 0, 0)" xlink:href="#linear-gradient-7"/>
    <linearGradient id="linear-gradient-33" x1="840.87" y1="507.98" x2="821.83" y2="535.49" xlink:href="#linear-gradient-2"/>
    <linearGradient id="linear-gradient-34" x1="-3539.4" y1="3812.7" x2="-3526.14" y2="3812.7" gradientTransform="translate(-455.97 -4518.39) rotate(-56.7)" xlink:href="#linear-gradient-2"/>
    <linearGradient id="linear-gradient-35" x1="823.33" y1="477.91" x2="829.38" y2="515.69" xlink:href="#linear-gradient-2"/>
    <linearGradient id="linear-gradient-36" x1="-14816.99" y1="-5548.4" x2="-14810.34" y2="-5567.75" gradientTransform="matrix(-0.75, -0.67, -0.67, 0.75, -13990.34, -5091.03)" xlink:href="#linear-gradient-2"/>
    <linearGradient id="linear-gradient-37" x1="-14766.01" y1="-5732.85" x2="-14760.75" y2="-5702.85" gradientTransform="matrix(-0.75, -0.67, -0.67, 0.75, -13990.34, -5091.03)" xlink:href="#linear-gradient-7"/>
    <linearGradient id="linear-gradient-38" x1="-14823.4" y1="-5550.61" x2="-14816.75" y2="-5569.95" gradientTransform="matrix(-0.75, -0.67, -0.67, 0.75, -13990.34, -5091.03)" xlink:href="#linear-gradient-2"/>
    <linearGradient id="linear-gradient-39" x1="-9901.36" y1="-698.6" x2="-9915.32" y2="-685.01" gradientTransform="matrix(-1.03, -0.01, 0.01, -1.13, -9279.5, -439.63)" gradientUnits="userSpaceOnUse">
      <stop offset="0" stop-color="#53d8ff"/>
      <stop offset="1" stop-color="#3840f7"/>
    </linearGradient>
    <linearGradient id="linear-gradient-40" x1="-9901.17" y1="-670.91" x2="-9915.14" y2="-657.32" xlink:href="#linear-gradient-39"/>
    <linearGradient id="linear-gradient-41" x1="-9900.99" y1="-643.21" x2="-9914.95" y2="-629.62" xlink:href="#linear-gradient-39"/>
    <linearGradient id="linear-gradient-42" x1="404.13" y1="343.39" x2="410.76" y2="343.39" xlink:href="#linear-gradient-3"/>
    <linearGradient id="linear-gradient-43" x1="406.25" y1="364.44" x2="408.64" y2="364.44" xlink:href="#linear-gradient-3"/>
    <linearGradient id="linear-gradient-44" x1="406.25" y1="366.83" x2="408.64" y2="366.83" xlink:href="#linear-gradient-3"/>
    <linearGradient id="linear-gradient-45" x1="406.25" y1="369.21" x2="408.64" y2="369.21" xlink:href="#linear-gradient-3"/>
    <linearGradient id="linear-gradient-46" x1="406.25" y1="371.52" x2="408.64" y2="371.52" xlink:href="#linear-gradient-3"/>
    <linearGradient id="linear-gradient-47" x1="406.25" y1="373.82" x2="408.64" y2="373.82" xlink:href="#linear-gradient-3"/>
    <linearGradient id="linear-gradient-48" x1="406.25" y1="376.2" x2="408.64" y2="376.2" xlink:href="#linear-gradient-3"/>
    <linearGradient id="linear-gradient-49" x1="406.25" y1="378.59" x2="408.64" y2="378.59" xlink:href="#linear-gradient-3"/>
    <linearGradient id="linear-gradient-50" x1="406.25" y1="347.9" x2="408.64" y2="347.9" xlink:href="#linear-gradient-3"/>
    <linearGradient id="linear-gradient-51" x1="406.25" y1="350.29" x2="408.64" y2="350.29" xlink:href="#linear-gradient-3"/>
    <linearGradient id="linear-gradient-52" x1="406.25" y1="352.68" x2="408.64" y2="352.68" xlink:href="#linear-gradient-3"/>
    <linearGradient id="linear-gradient-53" x1="406.25" y1="354.98" x2="408.64" y2="354.98" xlink:href="#linear-gradient-3"/>
    <linearGradient id="linear-gradient-54" x1="406.25" y1="357.28" x2="408.64" y2="357.28" xlink:href="#linear-gradient-3"/>
    <linearGradient id="linear-gradient-55" x1="406.25" y1="359.66" x2="408.64" y2="359.66" xlink:href="#linear-gradient-3"/>
    <linearGradient id="linear-gradient-56" x1="406.25" y1="362.05" x2="408.64" y2="362.05" xlink:href="#linear-gradient-3"/>
    <linearGradient id="linear-gradient-57" x1="381.1" y1="403.32" x2="430.34" y2="403.32" xlink:href="#linear-gradient-3"/>
    <linearGradient id="linear-gradient-58" x1="633.63" y1="343.39" x2="640.26" y2="343.39" xlink:href="#linear-gradient-3"/>
    <linearGradient id="linear-gradient-59" x1="635.75" y1="364.44" x2="638.14" y2="364.44" xlink:href="#linear-gradient-3"/>
    <linearGradient id="linear-gradient-60" x1="635.75" y1="366.83" x2="638.14" y2="366.83" xlink:href="#linear-gradient-3"/>
    <linearGradient id="linear-gradient-61" x1="635.75" y1="369.21" x2="638.14" y2="369.21" xlink:href="#linear-gradient-3"/>
    <linearGradient id="linear-gradient-62" x1="635.75" y1="371.52" x2="638.14" y2="371.52" xlink:href="#linear-gradient-3"/>
    <linearGradient id="linear-gradient-63" x1="635.75" y1="373.82" x2="638.14" y2="373.82" xlink:href="#linear-gradient-3"/>
    <linearGradient id="linear-gradient-64" x1="635.75" y1="376.2" x2="638.14" y2="376.2" xlink:href="#linear-gradient-3"/>
    <linearGradient id="linear-gradient-65" x1="635.75" y1="378.59" x2="638.14" y2="378.59" xlink:href="#linear-gradient-3"/>
    <linearGradient id="linear-gradient-66" x1="635.75" y1="347.9" x2="638.14" y2="347.9" xlink:href="#linear-gradient-3"/>
    <linearGradient id="linear-gradient-67" x1="635.75" y1="350.29" x2="638.14" y2="350.29" xlink:href="#linear-gradient-3"/>
    <linearGradient id="linear-gradient-68" x1="635.75" y1="352.68" x2="638.14" y2="352.68" xlink:href="#linear-gradient-3"/>
    <linearGradient id="linear-gradient-69" x1="635.75" y1="354.98" x2="638.14" y2="354.98" xlink:href="#linear-gradient-3"/>
    <linearGradient id="linear-gradient-70" x1="635.75" y1="357.28" x2="638.14" y2="357.28" xlink:href="#linear-gradient-3"/>
    <linearGradient id="linear-gradient-71" x1="635.75" y1="359.66" x2="638.14" y2="359.66" xlink:href="#linear-gradient-3"/>
    <linearGradient id="linear-gradient-72" x1="635.75" y1="362.05" x2="638.14" y2="362.05" xlink:href="#linear-gradient-3"/>
    <linearGradient id="linear-gradient-73" x1="610.6" y1="403.32" x2="659.84" y2="403.32" xlink:href="#linear-gradient-3"/>
  </defs>
  <g>
    <path d="M1028.42,164.4c-25.9-51.55-82.78-90.31-138.15-78.42-33.15,7.12-66.1,31-97.88,19-22.91-8.65-35.85-33.16-55.1-48.54-29.64-23.68-71.72-23.4-107.84-12.8S560.26,73.78,524.57,85.84a270.4,270.4,0,0,1-188.12-6.19c-26.08-10.75-50.49-25.6-77-35.07s-56.67-13.15-82.3-1.3-44,42.82-35.12,70.16c1.77,5.45,4.55,10.82,4.19,16.55-.58,9.2-9.25,15.93-18,18s-17.9.71-26.89.94C61,150,24.92,187.67,24.73,229c-.16,34.28,20.47,64.42,38.11,93.55s33.49,64.09,23,96.65c-6.23,19.3-20.84,34.4-30.42,52.21C30.58,517.59,43.85,578.71,78.51,617.65s86.57,58,137.81,62.52,102.61-4,153.37-12.39,102.19-16.79,153.4-12l-2.76-1.53a815.65,815.65,0,0,0,306.89,17.84c21.4-2.85,46-9,55-29,7.64-17,.78-36.82,2.35-55.42,2.27-26.81,21.89-48.76,43.29-64.35s45.67-27.18,64.94-45.45c37.71-35.72,50.51-91,56.13-143.33C1055.13,276.89,1054.33,216,1028.42,164.4Z" fill="url(#linear-gradient)"/>
    <g>
      <path d="M296.08,666.63c34.39-17.92,46.16-79.45,26.61-99.45-13.21-13.51-32.15.7-50.42-13.3-23.33-17.89-6.17-51.57-24.51-95.24-15.61-37.18-53.06-72.35-74.94-65.13-22.9,7.55-35,63.6-15.4,97.34,12.72,21.94,32.19,23,36.41,43.42,4.9,23.67-18.78,34.47-18.9,57.42C174.69,632.92,250.58,690.33,296.08,666.63Z" fill="#bdd0fb"/>
      <path d="M277.52,682.38a1.33,1.33,0,0,0,.61-.14,1.39,1.39,0,0,0,.65-1.87c-45.59-93.94-59-202.92-59.09-204a1.4,1.4,0,1,0-2.78.33c.13,1.09,13.56,110.54,59.35,204.9A1.4,1.4,0,0,0,277.52,682.38Z" fill="#91b3fa"/>
      <path d="M184,504.58a.7.7,0,0,0,.41-.14.67.67,0,0,0,.11-.94C170.12,485,154.18,457.28,159.92,430c3.42-16.27,13-24.75,13.14-24.83a.68.68,0,0,0,.07-.95.67.67,0,0,0-.95-.06c-.41.35-10.06,8.86-13.57,25.56-3.23,15.35-1.54,40.76,24.85,74.63A.67.67,0,0,0,184,504.58Z" fill="#f0f0f0"/>
      <path d="M299.18,658.42a.67.67,0,0,0,.55-.29c22.12-32.27,29.66-57.21,22.42-74.12-6.44-15-22.7-17.83-22.86-17.86a.67.67,0,1,0-.22,1.32c.16,0,15.71,2.72,21.85,17.08,7,16.46-.46,41-22.29,72.82a.68.68,0,0,0,.17.94A.76.76,0,0,0,299.18,658.42Z" fill="#f0f0f0"/>
    </g>
    <g>
      <path d="M1015,340.39c-9.35,49.89-76.9,337.64-388.1,316.49,0,0-9.68-202,381.75-321.5C1012.07,334.33,1015.61,337.14,1015,340.39Z" fill="#91b3fa"/>
      <path d="M980.06,389.36c-4.8,7.51-9.91,14.75-15.14,21.94-2.6,3.59-5.29,7.12-8,10.67s-5.4,7-8.19,10.5q-16.59,20.83-34.67,40.43a665.27,665.27,0,0,1-78.05,72.41c-6.93,5.57-14.15,10.75-21.3,16-7.33,5-14.56,10.21-22.11,14.91-7.4,4.92-15.13,9.33-22.76,13.9-3.88,2.17-7.8,4.27-11.7,6.41-2,1.05-3.89,2.16-5.88,3.16l-6,3-6,3c-2,1-4,2-6,2.88L722.13,614c-1,.44-2,.92-3,1.34L716,616.51,709.76,619c-4.14,1.62-8.25,3.33-12.49,4.69L684.63,628c-4.25,1.33-8.55,2.5-12.82,3.76l-6.41,1.85c-2.16.56-4.34,1-6.5,1.56l-13,3.06a1.8,1.8,0,0,1-.82-3.5h0l.09,0,12.9-3c2.14-.5,4.3-1,6.44-1.51l6.37-1.8c4.24-1.23,8.51-2.37,12.72-3.67l12.55-4.23c4.22-1.32,8.31-3,12.43-4.59l6.17-2.4,3.09-1.2c1-.42,2-.88,3-1.32L733,605.66c2-.85,4-1.85,6-2.82l6-2.92,5.95-2.91c2-1,3.9-2.08,5.85-3.11,3.89-2.11,7.79-4.18,11.66-6.31,7.61-4.51,15.31-8.85,22.7-13.72,7.54-4.63,14.75-9.75,22.07-14.72,7.14-5.23,14.35-10.35,21.28-15.86a662,662,0,0,0,78.13-71.78q18.12-19.42,34.77-40.15c2.8-3.43,5.48-7,8.22-10.43s5.38-7,8-10.61c5.25-7.13,10.4-14.36,15.19-21.77h0a.76.76,0,0,1,1.05-.23A.75.75,0,0,1,980.06,389.36Z" fill="#bdd0fb"/>
    </g>
    <g>
      <path d="M874,102.7C897.18,162.12,1015.61,512.63,655.76,668c0,0-146.55-213.38,207.85-567C866.71,97.81,872.52,98.82,874,102.7Z" fill="#bdd0fb"/>
      <path d="M858.68,195.57c-2.95,19.89-6.6,39.64-10.58,59.33s-8.39,39.29-13.19,58.8c-9.63,39-20.8,77.64-34.06,115.59S772.23,504.5,753.63,540.2a534.14,534.14,0,0,1-30.73,52,372.69,372.69,0,0,1-37.48,47.41,1.8,1.8,0,1,1-2.63-2.46h0a371.92,371.92,0,0,0,37.34-46.81,533,533,0,0,0,30.76-51.52c18.67-35.45,34.11-72.56,47.53-110.33s24.72-76.33,34.49-115.24q7.32-29.18,13.43-58.66c4.06-19.64,7.8-39.37,10.82-59.18h0a.75.75,0,0,1,.87-.64A.76.76,0,0,1,858.68,195.57Z" fill="#bdd0fb"/>
    </g>
    <g>
      <path d="M761,484.74A76.16,76.16,0,0,0,747.4,363.8c-11.1-6.56-24.68-11.05-30.82-22.39-5-9.15-3.59-20.28-2.25-30.6,6.55-50.36,8.85-103.17-10-150.32-28-70.05-105-117.06-180.15-110.15C449.06,43.43,372.05,90.44,344,160.49c-18.87,47.15-16.57,100-10,150.32,1.34,10.32,2.71,21.45-2.25,30.6-6.14,11.34-19.72,15.83-30.82,22.39a76.16,76.16,0,0,0-13.56,120.94C293,490,299.6,494.83,302.05,502.1c3.41,10.14-2.54,20.71-5.73,30.92-10.71,34.3,11.92,71.91,42.84,90.24,29,17.18,63.42,21.43,97.1,24.53,14.67,4.46,29.63,8.71,44.93,8.45,16.22-.28,33.2-6.48,42.52-19.75.16-.23.3-.46.45-.69.16.23.3.46.46.69,9.32,13.27,26.3,19.47,42.52,19.75,15.3.26,30.26-4,44.93-8.45,33.68-3.1,68.13-7.35,97.1-24.53C740.09,604.93,762.72,567.32,752,533c-3.19-10.21-9.14-20.78-5.73-30.92C748.73,494.83,755.38,490,761,484.74Z" fill="#f15a24"/>
      <path d="M715.3,594.57c-44.06,1.26-102,22.66-128.4-12.59s-16.36-143.49-16.36-143.49-32.45-3.38-49.29-2.71c-16.85-.67-49.3,2.71-49.3,2.71S482,546.74,455.59,582s-84.34,13.85-128.4,12.59c-34.86-1-47.07,64.3-42,80.71a10,10,0,0,0,9.61,7.07H754.9a10,10,0,0,0,9.61-7.07C769.57,658.87,750.16,593.57,715.3,594.57Z" fill="url(#linear-gradient-2)"/>
      <path d="M715.3,594.57c-22.82.65-49.35,6.7-73.3,7.49-21.89,18.07-63.44,44.58-116.16,41.59a224.87,224.87,0,0,1-117.78-41.53c-25.82.5-55.61-6.83-80.87-7.55-34.86-1-47.07,64.3-42,80.71a10,10,0,0,0,9.61,7.07H754.9a10,10,0,0,0,9.61-7.07C769.57,658.87,750.16,593.57,715.3,594.57Z" fill="url(#linear-gradient-3)"/>
      <path d="M414.25,188.18a28.88,28.88,0,0,0-4.14,14.3c-.73,33.74-3,172.55,8.82,199.84,14.68,33.85,52.39,70.81,99.87,77.59s105.54-58.41,112.32-89.73c3.59-16.54,3.18-150.69,3-186.39a29,29,0,0,0-5.54-16.91c-13.36-18.39-50.54-61-105.72-56.49C485.34,133.44,445.81,135.88,414.25,188.18Z" fill="url(#linear-gradient-4)"/>
      <path d="M626.73,304.42s0-61,33.91-27.12-33.91,81.38-33.91,81.38Z" fill="url(#linear-gradient-5)"/>
      <path d="M416.4,304.42s0-61-33.91-27.12,33.91,81.38,33.91,81.38Z" fill="url(#linear-gradient-6)"/>
      <path d="M402.86,251.09c.08,2.09,29-20.09,79-29.35C542.8,210.46,564.06,177,577.79,177c6.77,0,16.93,4.2,15.8,33.59s30.47,64,55.3,30.44S627.45,120.33,521.36,122.43,399.47,165,402.86,251.09Z" fill="#f15a24"/>
      <g>
        <path d="M424.06,299.27c5.57-2.42,9.79-8,15.55-10.4a29.65,29.65,0,0,1,20.9-.6c11.87,3.86,24.26,13.44,37,7.36.45-.22.35-1.13-.16-1.11-16.4.77-28.59-13.19-44.51-14.32-6-.42-13.14-.53-18.71,2.28-4.95,2.5-16,10.38-16,10.38S422.83,299.8,424.06,299.27Z" fill="#511403"/>
        <path d="M619.62,299.27c-5.57-2.42-9.78-8-15.55-10.4a29.65,29.65,0,0,0-20.9-.6c-11.87,3.86-24.26,13.44-37,7.36-.45-.22-.34-1.13.16-1.11,16.4.77,28.59-13.19,44.51-14.32,6-.42,13.14-.53,18.71,2.28,5,2.5,16,10.38,16,10.38S620.85,299.8,619.62,299.27Z" fill="#511403"/>
      </g>
      <path d="M545.05,252.23h0a4.38,4.38,0,0,0,5.74,4.17c13.72-4.56,49.22-13.77,76.06,2.09,0,0-15-34.49-79-10.35A4.36,4.36,0,0,0,545.05,252.23Z" fill="#f15a24"/>
      <path d="M499,252.23h0a4.38,4.38,0,0,1-5.74,4.17c-13.71-4.56-49.22-13.77-76.05,2.09,0,0,15-34.49,79-10.35A4.37,4.37,0,0,1,499,252.23Z" fill="#f15a24"/>
      <g>
        <path d="M578.39,395.15s-20.74-9.62-35-8.42-18.79,4.81-18.79,4.81-4.54-3.6-18.8-4.81-35,8.42-35,8.42a57.6,57.6,0,0,0,107.58,0Z" fill="#c1272d"/>
        <path d="M564.86,401.76s-18,12.62-40.26,12.62-40.27-12.62-40.27-12.62a270.82,270.82,0,0,1,80.53,0Z" fill="#fff"/>
      </g>
      <path d="M365.07,424.57a20.54,20.54,0,0,1-4.23-.44.89.89,0,0,1-.69-1.07.88.88,0,0,1,1.06-.69c9.19,1.94,21.91-4,26.45-17.09,3.35-9.64,2-21.69-3.78-33.93-3.33-7.05-7.74-13.68-12-20.09-2.21-3.33-4.5-6.77-6.62-10.23-10.3-16.84-16-33.52-17-49.57-1.16-18.89,4.58-36.88,15.77-49.36,12.77-14.25,31.58-20.85,48.29-25.43,12.13-3.32,24.62-6,36.71-8.65,15-3.26,30.58-6.63,45.52-11.21,32.12-9.85,55.4-23.78,71.18-42.58a.9.9,0,1,1,1.38,1.15c-16,19.09-39.57,33.2-72,43.15-15,4.6-30.59,8-45.66,11.25-12.06,2.61-24.53,5.32-36.62,8.63-16.45,4.51-35,11-47.42,24.89-10.87,12.13-16.45,29.64-15.31,48.05,1,15.75,6.61,32.15,16.75,48.74,2.11,3.44,4.39,6.86,6.59,10.17,4.3,6.47,8.76,13.16,12.14,20.32,6,12.67,7.36,25.2,3.85,35.29C386,415.54,376.17,424.57,365.07,424.57Z" fill="#fff"/>
      <path d="M356.58,223h-.05a.46.46,0,0,1-.39-.5c1.08-9.65,7.14-19,16.63-25.53,9.19-6.37,20.24-9.42,28.84-11.37,15.94-3.6,32.46-5.33,48.44-7,4.06-.43,8.12-.85,12.18-1.31,19.59-2.19,40.37-5.25,59.54-12.7,14.66-5.69,34.82-16.63,47.56-36.39a.45.45,0,0,1,.76.48c-12.88,20-33.21,31-48,36.75C502.83,172.88,482,176,462.33,178.16q-6.09.68-12.19,1.3c-15.95,1.68-32.45,3.4-48.33,7-8.52,1.93-19.47,5-28.53,11.23-9.27,6.43-15.19,15.5-16.25,24.89A.45.45,0,0,1,356.58,223Z" fill="#fff"/>
      <path d="M685.42,574.74a.9.9,0,0,1-.28-1.75c6.14-2,9.26-9.07,9.16-15-.1-6.64-3.23-13-6.16-18.34l-1-1.82c-2.88-5.26-5.86-10.7-7-16.7-3.42-17.93,10.35-33.15,16.43-38.86a179.2,179.2,0,0,1,15.95-12.84c6-4.44,12.15-9,17.49-14.34,11.88-11.84,17-26,13.65-37.83-3.18-11.26-12.62-18.37-22.62-25.89a129.38,129.38,0,0,1-13.49-11.12c-12-11.89-19.24-29.8-19.86-49.13-.52-16.2,3.16-33.32,11.27-52.36a.9.9,0,0,1,1.66.71c-8,18.79-11.65,35.66-11.13,51.6.6,18.87,7.65,36.33,19.32,47.9a129,129,0,0,0,13.31,11c9.8,7.37,19.93,15,23.27,26.84,3.52,12.49-1.76,27.29-14.11,39.59-5.43,5.4-11.66,10-17.68,14.51a175.7,175.7,0,0,0-15.8,12.71c-5.86,5.51-19.14,20.16-15.9,37.22,1.09,5.72,4,11,6.82,16.16l1,1.83c3,5.58,6.26,12.12,6.37,19.17.11,6.61-3.43,14.48-10.4,16.75A1,1,0,0,1,685.42,574.74Z" fill="#fff"/>
    </g>
    <g>
      <path d="M189.25,468.16s-8.1,10.79-17.65,13.75c-4.54,1.41-12.63,5.1-13.73,14a10.2,10.2,0,0,1-8.53,9c-11.38,1.74-28.92,7.65-31.73,27.41-2.14,15.08,5.55,20.8,13.62,22.78a11.43,11.43,0,0,1,8.67,13.2c-1.15,5.74.56,12.37,10.5,17.62C172.68,597.62,194.93,558,194.93,558l4.56-69.16Z" fill="url(#linear-gradient-7)"/>
      <path d="M240.24,454.66s-13.14,35.82-35.53,47c0,0,7.45,12.16,11.34,12.9,0,0,23.91-30.61,26.35-55.69Z" fill="url(#linear-gradient-8)"/>
      <path d="M150.21,670.1l-.67,5.44a2.23,2.23,0,0,1-2,2,34.64,34.64,0,0,1-7.27.11,1.92,1.92,0,0,1-1.62-2.49c.67-2.1,1.89-5.24,3.65-7.1h6A1.86,1.86,0,0,1,150.21,670.1Z" fill="url(#linear-gradient-9)"/>
      <path d="M197.4,606.48l1,6s-3.4,34.5-4,48.29a10.89,10.89,0,0,0,1.6,6.15l5.93,9.62-15.06-8.89-.29-1.83,2.46-3.39-3.23-38.64a11.86,11.86,0,0,1,1.35-6.56l3.11-5.85Z" fill="url(#linear-gradient-10)"/>
      <path d="M202.92,677.91h-4.81a2.87,2.87,0,0,1-2.29-1.13c-1.5-1.94-4.6-5.74-6.08-5.84-2-.13-1.75,7-1.75,7h-1.12l-1.41-8.82a5.21,5.21,0,0,1,2.74-5.46h0s.45,3.38,2.93,4.87,10.07,6.84,10.07,6.84a7,7,0,0,1,2,0A1.27,1.27,0,0,1,202.92,677.91Z" fill="url(#linear-gradient-11)"/>
      <path d="M176.78,609.32s-19.95,37.84-23.12,46.48a82.75,82.75,0,0,0-4.32,16.54c-.07,1.06-1.4,2.09-5.05,2.09a3.52,3.52,0,0,1-3.27-1.49,2.17,2.17,0,0,1-.08-2.07c1.15-2.33,4.82-9.8,6.17-13.18,1.62-4,5.11-22.36,7-28.73s4.07-13.28,12.39-19.64C166.52,609.32,172.23,603.72,176.78,609.32Z" fill="url(#linear-gradient-12)"/>
      <path d="M189.39,547.31c5.14-21.81-7.89-34.15-7.89-34.15,8.22-7.89,23.21-11.49,23.21-11.49s14.3,10.46,12.61,18.64c-1,4.8-10.06,28.74-10.06,28.74A19.91,19.91,0,0,1,189.39,547.31Z" fill="url(#linear-gradient-13)"/>
      <path d="M178,558.1c2.09-6.31,11.41-10.79,11.41-10.79a19.91,19.91,0,0,0,17.87,1.74,35.9,35.9,0,0,1,.59,13.85c-1.3,6.67-9.44,49.56-9.44,49.56-12.81,2.6-32.53-2.61-32.53-2.61C174.05,595.35,175.88,564.41,178,558.1Z" fill="url(#linear-gradient-14)"/>
      <path d="M195.36,487.26l-4.18,18.8c-.4,1.65,1.11,1.38,2.78,1.07,2.74-.52,6.27-1.59,7.45-3.72a2.18,2.18,0,0,0,.22-.71l1.8-13a2.35,2.35,0,0,0-1.37-2.46l-3.47-1.54A2.35,2.35,0,0,0,195.36,487.26Z" fill="url(#linear-gradient-15)"/>
      <path d="M181.5,513.16s-29.21,20.9-3.74,42.85a6.56,6.56,0,0,0,2.88,1.67c1,.29,3.82,2.45,5.27,3.57a1,1,0,0,0,1.45-.26h0a1.35,1.35,0,0,0,.07-1.29l-3.61-7.65a2.79,2.79,0,0,0-3.62-.16h0a1.38,1.38,0,0,1-2.09-.47c-2-4-5.69-15.8,9.53-29.13a1.63,1.63,0,0,0,.36-2C186.94,518.23,184.49,514.16,181.5,513.16Z" fill="url(#linear-gradient-16)"/>
      <g>
        <path d="M200.27,469.37s5,2.09,8.33,9.25.85,10.47-2.31,10.92-7.89.39-12.89-4.24S193.83,466.89,200.27,469.37Z" fill="url(#linear-gradient-17)"/>
        <path d="M196.76,481.48S193,471,202.31,470.88l2.19,1.52s3.41-5.8-2.19-8.58-12.14-.48-14.52,7.06S185,483.46,189,487.06s5.6-.48,5.6-.48-2.16-3.37-1.28-5.18,2.9.38,2.9.38Z" fill="url(#linear-gradient-18)"/>
        <path d="M195.72,482.64s-1.89-5.39-4.41-3.24,2.05,5,3.84,5.9Z" fill="url(#linear-gradient-19)"/>
      </g>
      <g>
        <path d="M241.5,461.18c.2.64-2.12,1.61-3.49-1,0-1.24-.81-6.6-.06-7.61,4-5.42,11.68-12.22,11.68-12.22a1.84,1.84,0,0,1,.23,2.55l-3.74,3.9a17.8,17.8,0,0,1,2.18,4.31,5.21,5.21,0,0,1-.52,3.86,44,44,0,0,1-2.4,3.92A5.14,5.14,0,0,1,241.5,461.18Z" fill="url(#linear-gradient-20)"/>
        <path d="M243.49,458.54l-.89-.16c.11-.59,1.06-5.83,1.84-7.1a1.5,1.5,0,0,0,.33-1.08.59.59,0,0,0-.24-.32l-3.07,2.6-1,2.76-.84-.31,1.11-3,3.72-3.15.27.13a1.71,1.71,0,0,1,.95,1,2.28,2.28,0,0,1-.43,1.79C244.62,452.71,243.77,457,243.49,458.54Z" fill="url(#linear-gradient-21)"/>
      </g>
      <path d="M133.92,545.22a10.55,10.55,0,0,1-9.51-6.87c-1.58-4.29-.56-9.54,2.67-13.71,2.6-3.35,6.58-6.09,11.83-8.14,2.91-1.14,6-2,8.92-2.83,1.62-.45,3.29-.92,4.92-1.43,3.85-1.21,8.1-2.92,10.44-6.47a20.79,20.79,0,0,0,2.52-7.38l.36-1.72c.6-2.63,1.73-6.35,4.71-8.23a14.25,14.25,0,0,1,4.45-1.58l1.5-.37c2.55-.7,4.2-1.84,4.91-3.39a.12.12,0,0,1,.15-.06.12.12,0,0,1,.06.15c-.74,1.62-2.44,2.8-5.06,3.51-.5.14-1,.26-1.51.38a14,14,0,0,0-4.38,1.55c-2.91,1.83-4,5.5-4.61,8.09-.13.57-.24,1.14-.36,1.72-.54,2.58-1.09,5.24-2.55,7.46-2.38,3.6-6.67,5.33-10.56,6.55-1.63.51-3.31,1-4.93,1.44-2.95.83-6,1.68-8.9,2.81-5.21,2-9.16,4.76-11.73,8.07-3.18,4.12-4.19,9.29-2.64,13.51,1.73,4.69,6.91,7.65,11.32,6.45a.12.12,0,0,1,.14.08.11.11,0,0,1-.08.14A8.13,8.13,0,0,1,133.92,545.22Z" fill="#fff" opacity="0.71"/>
      <path d="M133,541.34h0a5.39,5.39,0,0,1-4.11-4.08,8.1,8.1,0,0,1,1-5.86c2.26-4,6.92-6.58,13.86-7.78,1.26-.22,2.56-.4,3.82-.58,4.08-.57,8.31-1.16,12-3.11A17.89,17.89,0,0,0,168,510a35.15,35.15,0,0,0,1.35-6.49c.19-1.27.38-2.58.65-3.86.9-4.31,2.69-7.31,5.29-8.9a.12.12,0,0,1,.16,0,.11.11,0,0,1,0,.15c-2.55,1.56-4.3,4.51-5.19,8.76-.27,1.27-.46,2.58-.64,3.85a36.14,36.14,0,0,1-1.37,6.53,18.1,18.1,0,0,1-8.57,10c-3.7,2-7.94,2.56-12,3.13-1.26.18-2.55.36-3.81.58-6.87,1.19-11.48,3.77-13.7,7.67a7.89,7.89,0,0,0-1,5.7,5.15,5.15,0,0,0,3.93,3.91.11.11,0,0,1,.09.13A.12.12,0,0,1,133,541.34Z" fill="#fff" opacity="0.71"/>
    </g>
    <g>
      <path d="M809.32,505.05s-22.61,25.2-8.1,25.2h12.6Z" fill="url(#linear-gradient-22)"/>
      <path d="M819.79,665.05s.77,4.34,1.15,8.64a3,3,0,0,1-2.84,3.21c-5.73.24-18,.7-22.37.51a1,1,0,0,1-.85-1.32h0a2.17,2.17,0,0,1,1.1-1.17l20.24-9.3Z" fill="url(#linear-gradient-23)"/>
      <path d="M820.42,662.49l-.62,5.2s-3.54,1.65-6-.21l1.47-5.79Z" fill="url(#linear-gradient-24)"/>
      <path d="M820,564.79c.26,1.35,1.43,67.72-5.67,97.46a1,1,0,0,0,.59,1.18,17.63,17.63,0,0,0,5.78,1.17,1.74,1.74,0,0,0,1.73-1.24c2-6.91,11.74-41.48,13-74.51,1.42-36.9,0-1.25,0-1.25l-.83-22.82Z" fill="url(#linear-gradient-25)"/>
      <path d="M843.07,667.31s1.22,2.2,2.41,8a1.82,1.82,0,0,1-1.59,2.17c-1.9.18-4.81.42-7.14.41a1.81,1.81,0,0,1-1.78-2,15.16,15.16,0,0,1,3.54-8.34Z" fill="url(#linear-gradient-26)"/>
      <path d="M844.14,660.63l-1.44,7.86s-1.42,1.06-4.24.29l.69-8.46Z" fill="url(#linear-gradient-27)"/>
      <path d="M848,566.82c5.8,35-1.26,86.55-3.64,96.64a1.59,1.59,0,0,1-1.27,1.19,10.52,10.52,0,0,1-4.54-.18,1.44,1.44,0,0,1-1-1.33c-.32-8.15.26-58.21-5.15-78a4.42,4.42,0,0,0-1.73-2.48l-10.5-7.46-.8-12.06Z" fill="url(#linear-gradient-28)"/>
      <path d="M809.32,505.05c17.1-5.4,38.32,0,38.32,0,5.18,30.24.91,65.12.91,65.12C835.08,573.69,819.9,568,819.9,568,817.66,555.37,804.21,506.67,809.32,505.05Z" fill="url(#linear-gradient-29)"/>
      <path d="M841,521.88,847.64,505s16.24,11,18.91,25a38.31,38.31,0,0,0-14.12,3.78C851.23,527.24,841,521.88,841,521.88Z" fill="url(#linear-gradient-30)"/>
      <path d="M826.78,537.72s18.23,10.3,24.38,1.5a6.87,6.87,0,0,0,1.27-5.37,38.31,38.31,0,0,1,14.12-3.78,19.26,19.26,0,0,1-2.1,13.23c-10.78,19.72-40.09-1.09-40.09-1.09Z" fill="url(#linear-gradient-31)"/>
      <g>
        <path d="M829,550.76,819,516a1,1,0,0,0-.86-.73c-1.81-.21-7-.8-13.06-1.31-7.27-.61-15.71-1.11-20.75-.69a1,1,0,0,0-.83,1.46c2.87,5.81,14.66,29.4,20.57,37.13a1,1,0,0,0,.82.41l23.09-.22A1,1,0,0,0,829,550.76Z" fill="url(#linear-gradient-32)"/>
        <path d="M804.07,511l-7.22-1.21a.53.53,0,0,0-.58.68l.72,2.16a.49.49,0,0,0,.42.35l6.94.93a.52.52,0,0,0,.58-.63l-.45-1.89A.5.5,0,0,0,804.07,511Z" fill="#7d97f4"/>
        <path d="M809.47,517.06l-.6-3.1a.71.71,0,0,0-.63-.58l-14.57-1.48a.72.72,0,0,0-.77.88l.93,3.86a.71.71,0,0,0,.66.55l14.24.72A.72.72,0,0,0,809.47,517.06Z" fill="#7d97f4"/>
        <path d="M826.56,542.36s1.39-5.7.83-7.72-1.64-4.63-5.25-4a53,53,0,0,0-7.88,2.1,2.07,2.07,0,0,0,3,1.78l-1.7,1.32s.25,2.11,2.56,1l-1.58,1.75a1.85,1.85,0,0,0,2.7.62C820.91,538,821.73,543.05,826.56,542.36Z" fill="url(#linear-gradient-33)"/>
        <path d="M793,535.44s-5.53-2-6.91-3.55-3-3.91-.5-6.61a53.45,53.45,0,0,1,6.08-5.43,2.07,2.07,0,0,1-.14,3.46l2-.7s1.63,1.36-.59,2.68l2.33-.37a1.85,1.85,0,0,1-1,2.6C792.49,528.34,796.24,531.77,793,535.44Z" fill="url(#linear-gradient-34)"/>
      </g>
      <path d="M829.58,489.75l5.53,16a.59.59,0,0,1-.26.7c-1.51.83-6.94,3.24-13.49-.91a2.71,2.71,0,0,1-1.25-1.94l-1.79-13.85Z" fill="url(#linear-gradient-35)"/>
      <g>
        <path d="M817.54,474.94s-6.08,11.43-5.3,16.05,8.31,4.29,14.89.54l4.59-12.35Z" fill="url(#linear-gradient-36)"/>
        <path d="M826.84,485.47a.47.47,0,0,1-.21-.69,12.26,12.26,0,0,0,1.69-3.59s1.09-.7-2.78-1.63-9.65-2.36-10.86-5.66,1.93-11.29,6.89-4.86a.46.46,0,0,0,.74,0c.82-1.06,3-3.26,5.92-1.92,2.78,1.24,3.09,3.28,3,4.3a.47.47,0,0,0,.56.48,5.46,5.46,0,0,1,6.35,3c1.29,2.85.45,4.46-.32,5.25a.47.47,0,0,0,.2.78,2.83,2.83,0,0,1,2,3.23c-.17,3-3.51,2.72-4.46,2.59a.46.46,0,0,0-.42.15c-.81.9-4.49,4.73-8.47,5.19a.48.48,0,0,1-.5-.62l1.73-5a.49.49,0,0,0-.26-.59Z" fill="url(#linear-gradient-37)"/>
        <path d="M826.14,486.18s4.33-3,4.65-.47-3.9,3.62-6,2.69Z" fill="url(#linear-gradient-38)"/>
      </g>
    </g>
    <g>
      <path d="M718.53,333.29V438.7c0,7,5.16,12.65,11.51,12.65h29l-5.65,39.86,48.28-39.86H950.61c6.35,0,11.5-5.67,11.5-12.65V333.29c0-7-5.15-12.66-11.5-12.66H730C723.69,320.63,718.53,326.3,718.53,333.29Z" fill="#f2f2f2"/>
      <g>
        <g>
          <path d="M920.76,417.79a4.73,4.73,0,1,1,4.68,5.21A5,5,0,0,1,920.76,417.79Z" fill="url(#linear-gradient-39)"/>
          <path d="M920.92,417.79a4.57,4.57,0,1,1,4.52,5A4.78,4.78,0,0,1,920.92,417.79Z" fill="#91b3fa"/>
        </g>
        <g>
          <path d="M920.76,386.41a4.73,4.73,0,1,1,4.68,5.21A5,5,0,0,1,920.76,386.41Z" fill="url(#linear-gradient-40)"/>
          <path d="M920.92,386.41a4.57,4.57,0,1,1,4.52,5A4.78,4.78,0,0,1,920.92,386.41Z" fill="#91b3fa"/>
        </g>
        <g>
          <path d="M920.76,355a4.73,4.73,0,1,1,4.68,5.21A5,5,0,0,1,920.76,355Z" fill="url(#linear-gradient-41)"/>
          <path d="M920.92,355a4.57,4.57,0,1,1,4.52,5A4.78,4.78,0,0,1,920.92,355Z" fill="#91b3fa"/>
        </g>
        <path d="M913.52,418.06l0-.88c-.07-2.39-1.71-4.29-3.71-4.29l-152.65-.21c-2.08,0-3.76,2-3.75,4.45h0c0,2.42,1.62,4.39,3.66,4.44l152.67,1.09C911.86,422.71,913.6,420.61,913.52,418.06Z" fill="#91b3fa"/>
        <path d="M913.52,386.83l0-.88c-.07-2.39-1.71-4.28-3.71-4.29l-152.65-.21c-2.08,0-3.76,2-3.75,4.45h0c0,2.42,1.62,4.39,3.66,4.44l152.67,1.09C911.86,391.48,913.6,389.38,913.52,386.83Z" fill="#91b3fa"/>
        <path d="M913.52,355.6l0-.88c-.07-2.39-1.71-4.28-3.71-4.29l-152.65-.21c-2.08,0-3.76,2-3.75,4.45h0c0,2.42,1.62,4.39,3.66,4.44l152.67,1.1C911.86,360.26,913.6,358.15,913.52,355.6Z" fill="#91b3fa"/>
      </g>
    </g>
  </g>
  <g>
    <circle cx="407.44" cy="343.39" r="3.32" fill="url(#linear-gradient-42)"/>
    <g>
      <circle cx="407.44" cy="364.44" r="1.19" fill="url(#linear-gradient-43)"/>
      <g>
        <circle cx="407.44" cy="366.83" r="1.19" fill="url(#linear-gradient-44)"/>
        <circle cx="407.44" cy="369.21" r="1.19" fill="url(#linear-gradient-45)"/>
        <circle cx="407.44" cy="371.52" r="1.19" fill="url(#linear-gradient-46)"/>
        <circle cx="407.44" cy="373.82" r="1.19" fill="url(#linear-gradient-47)"/>
        <circle cx="407.44" cy="376.2" r="1.19" fill="url(#linear-gradient-48)"/>
        <circle cx="407.44" cy="378.59" r="1.19" fill="url(#linear-gradient-49)"/>
        <circle cx="407.44" cy="347.9" r="1.19" fill="url(#linear-gradient-50)"/>
        <circle cx="407.44" cy="350.29" r="1.19" fill="url(#linear-gradient-51)"/>
        <circle cx="407.44" cy="352.68" r="1.19" fill="url(#linear-gradient-52)"/>
        <circle cx="407.44" cy="354.98" r="1.19" fill="url(#linear-gradient-53)"/>
        <circle cx="407.44" cy="357.28" r="1.19" fill="url(#linear-gradient-54)"/>
        <circle cx="407.44" cy="359.66" r="1.19" fill="url(#linear-gradient-55)"/>
        <circle cx="407.44" cy="362.05" r="1.19" fill="url(#linear-gradient-56)"/>
      </g>
    </g>
    <g>
      <path d="M428.92,388.89c-2.51-3.21-9.11-10-19.68-9.81-12.21.24-23.63,7-27.15,19.11-3.63,12.41,3.2,22.74,12.41,27.48s22.74.28,26.64-9.49-.69-15.9-3.76-18.83a9.47,9.47,0,0,0-2.57-1.69,14.26,14.26,0,0,1,3.68,5.82,11.78,11.78,0,0,1,.76,4.17,11.62,11.62,0,0,1-.2,2.15c-1.61,11.78-15.66,15.39-24.13,8.94-9.91-7.53-6.32-20.36-4.84-23.15,7.64-14.33,26.58-16.34,37.43-5.38,1,1,1.85,2.1,2.83,3.06A13.41,13.41,0,0,0,428.92,388.89Z" fill-rule="evenodd" fill="url(#linear-gradient-57)"/>
      <path d="M385.57,422.7A24.64,24.64,0,0,0,405.65,433c12.21-.25,23.63-7,27.15-19.11,3.63-12.42-3.21-22.74-12.41-27.48s-22.74-.28-26.65,9.48.7,15.91,3.77,18.84a9.55,9.55,0,0,0,2.57,1.69,14.05,14.05,0,0,1-3.68-5.82,11.78,11.78,0,0,1-.76-4.17,11.62,11.62,0,0,1,.19-2.15c1.62-11.78,15.67-15.39,24.14-8.94,9.9,7.53,6.32,20.36,4.83,23.15a23.44,23.44,0,0,1-35.18,7.37,47.51,47.51,0,0,1-5.55-5.66A28.09,28.09,0,0,0,385.57,422.7Z" fill="#48bf2b" fill-rule="evenodd"/>
    </g>
  </g>
  <g>
    <circle cx="636.94" cy="343.39" r="3.32" fill="url(#linear-gradient-58)"/>
    <g>
      <circle cx="636.94" cy="364.44" r="1.19" fill="url(#linear-gradient-59)"/>
      <g>
        <circle cx="636.94" cy="366.83" r="1.19" fill="url(#linear-gradient-60)"/>
        <circle cx="636.94" cy="369.21" r="1.19" fill="url(#linear-gradient-61)"/>
        <circle cx="636.94" cy="371.52" r="1.19" fill="url(#linear-gradient-62)"/>
        <circle cx="636.94" cy="373.82" r="1.19" fill="url(#linear-gradient-63)"/>
        <circle cx="636.94" cy="376.2" r="1.19" fill="url(#linear-gradient-64)"/>
        <circle cx="636.94" cy="378.59" r="1.19" fill="url(#linear-gradient-65)"/>
        <circle cx="636.94" cy="347.9" r="1.19" fill="url(#linear-gradient-66)"/>
        <circle cx="636.94" cy="350.29" r="1.19" fill="url(#linear-gradient-67)"/>
        <circle cx="636.94" cy="352.68" r="1.19" fill="url(#linear-gradient-68)"/>
        <circle cx="636.94" cy="354.98" r="1.19" fill="url(#linear-gradient-69)"/>
        <circle cx="636.94" cy="357.28" r="1.19" fill="url(#linear-gradient-70)"/>
        <circle cx="636.94" cy="359.66" r="1.19" fill="url(#linear-gradient-71)"/>
        <circle cx="636.94" cy="362.05" r="1.19" fill="url(#linear-gradient-72)"/>
      </g>
    </g>
    <g>
      <path d="M658.42,388.89c-2.51-3.21-9.11-10-19.68-9.81-12.21.24-23.63,7-27.15,19.11-3.63,12.41,3.2,22.74,12.41,27.48s22.74.28,26.64-9.49-.69-15.9-3.76-18.83a9.47,9.47,0,0,0-2.57-1.69,14.26,14.26,0,0,1,3.68,5.82,11.78,11.78,0,0,1,.76,4.17,11.62,11.62,0,0,1-.2,2.15c-1.61,11.78-15.66,15.39-24.13,8.94-9.91-7.53-6.32-20.36-4.84-23.15,7.64-14.33,26.58-16.34,37.43-5.38,1,1,1.85,2.1,2.83,3.06A13.41,13.41,0,0,0,658.42,388.89Z" fill-rule="evenodd" fill="url(#linear-gradient-73)"/>
      <path d="M615.07,422.7A24.64,24.64,0,0,0,635.15,433c12.21-.25,23.63-7,27.15-19.11,3.63-12.42-3.21-22.74-12.41-27.48s-22.74-.28-26.65,9.48.7,15.91,3.77,18.84a9.55,9.55,0,0,0,2.57,1.69,14.05,14.05,0,0,1-3.68-5.82,11.78,11.78,0,0,1-.76-4.17,11.62,11.62,0,0,1,.19-2.15c1.62-11.78,15.67-15.39,24.14-8.94,9.9,7.53,6.32,20.36,4.83,23.15a23.44,23.44,0,0,1-35.18,7.37,47.51,47.51,0,0,1-5.55-5.66A28.09,28.09,0,0,0,615.07,422.7Z" fill="#48bf2b" fill-rule="evenodd"/>
    </g>
  </g>
</svg>
