<svg id="Layer_1" data-name="Layer 1" xmlns="http://www.w3.org/2000/svg" viewBox="0 0 689.35 399.87">
  <g>
    <path d="M629.4,29.82H60a8.4,8.4,0,0,0-8.4,8.4V263.38a8.4,8.4,0,0,0,8.4,8.4H486.67l78.84,93.45a3.52,3.52,0,0,0,6.2-2.27V271.78H629.4a8.4,8.4,0,0,0,8.4-8.4V38.22A8.4,8.4,0,0,0,629.4,29.82Z" fill="#fff"/>
    <g>
      <g>
        <path d="M102.84,320.33H98.91L87.69,296l-4.23,24.38H79.38l5.46-31.42h3.93L100,313.4l4.25-24.49h4Z" fill="#fff"/>
        <path d="M123.67,296.55a8.38,8.38,0,0,1,5,1.6,9,9,0,0,1,3.1,4.28,13.34,13.34,0,0,1,.68,6l-.05.47a15.61,15.61,0,0,1-2,6.16,12,12,0,0,1-4.19,4.28,10.2,10.2,0,0,1-5.63,1.45,8.44,8.44,0,0,1-5-1.6,8.84,8.84,0,0,1-3.07-4.23,13.51,13.51,0,0,1-.69-5.89,15.84,15.84,0,0,1,2-6.51,12.16,12.16,0,0,1,4.22-4.48A10,10,0,0,1,123.67,296.55Zm-8,12.51a13.38,13.38,0,0,0,0,2.83,7,7,0,0,0,1.53,4.06,4.57,4.57,0,0,0,3.48,1.57,6.27,6.27,0,0,0,3.58-1,7.91,7.91,0,0,0,2.76-3.09,13.19,13.19,0,0,0,1.45-4.6,20.24,20.24,0,0,0,.06-3.34A7.19,7.19,0,0,0,127,301.4a4.7,4.7,0,0,0-3.5-1.59,6.35,6.35,0,0,0-5.13,2.37,11.75,11.75,0,0,0-2.61,6.39Z" fill="#fff"/>
        <path d="M146.82,291.33l-1,5.65h4.25l-.54,3.09h-4.23l-2.44,14.52a5.14,5.14,0,0,0,0,1,1.64,1.64,0,0,0,1.83,1.69,11.62,11.62,0,0,0,1.9-.22l-.3,3.26a10.54,10.54,0,0,1-2.85.39,4.06,4.06,0,0,1-3.49-1.72,6.62,6.62,0,0,1-.91-4.5l2.37-14.45h-4.12l.54-3.09h4.12l1-5.65Zm-6.67,40.07L138,329.8a12.82,12.82,0,0,0,2.44-5.27l.32-1.76h3.71l-.19,1.35A10.84,10.84,0,0,1,140.15,331.4Z" fill="#fff"/>
        <path d="M156.1,320.33h-3.88L156.28,297h3.88Zm3.22-31.87a2.15,2.15,0,0,1,1.65.59,2.22,2.22,0,0,1,.66,1.67,2.42,2.42,0,0,1-.66,1.67,2.36,2.36,0,0,1-1.65.69,2.1,2.1,0,0,1-2.29-2.23,2.47,2.47,0,0,1,.65-1.68A2.31,2.31,0,0,1,159.32,288.46Z" fill="#fff"/>
        <path d="M178.46,318a9,9,0,0,1-7,2.74,5.82,5.82,0,0,1-5-2.4,9.13,9.13,0,0,1-1.19-6.3l2.5-15.08h3.9l-2.52,15.15a10.48,10.48,0,0,0,0,1.85,3.94,3.94,0,0,0,.93,2.44,3.16,3.16,0,0,0,2.29.95,7,7,0,0,0,6.47-3.39l2.94-17h3.9l-4.05,23.35H178Z" fill="#fff"/>
        <path d="M196.38,297l-.57,3a9.18,9.18,0,0,1,7.17-3.37,5.78,5.78,0,0,1,4.87,2.29c1.05,1.46,1.44,3.53,1.17,6.19l-2.55,15.3h-3.9L205.14,305a8.61,8.61,0,0,0,0-2q-.37-3-3.56-3.08-3.53-.07-6.17,3.75l-2.9,16.64h-3.9L192.69,297Z" fill="#fff"/>
        <path d="M217.87,320.33H214L218,297h3.89Zm3.22-31.87a2.15,2.15,0,0,1,1.65.59,2.21,2.21,0,0,1,.65,1.67,2.37,2.37,0,0,1-.65,1.67,2.39,2.39,0,0,1-1.65.69,2.17,2.17,0,0,1-1.67-.59,2.08,2.08,0,0,1-.62-1.64,2.43,2.43,0,0,1,.65-1.68A2.29,2.29,0,0,1,221.09,288.46Z" fill="#fff"/>
        <path d="M241.62,320.33h-3.89L241.79,297h3.88Zm3.21-31.87a2.15,2.15,0,0,1,1.65.59,2.22,2.22,0,0,1,.66,1.67,2.31,2.31,0,0,1-2.31,2.36,2.1,2.1,0,0,1-2.29-2.23,2.47,2.47,0,0,1,.65-1.68A2.31,2.31,0,0,1,244.83,288.46Z" fill="#fff"/>
        <path d="M256.9,297l-.56,3a9.15,9.15,0,0,1,7.16-3.37,5.81,5.81,0,0,1,4.88,2.29c1,1.46,1.43,3.53,1.16,6.19L267,320.33h-3.9L265.66,305a8.61,8.61,0,0,0,0-2c-.25-2-1.43-3-3.56-3.08-2.35-.05-4.4,1.2-6.17,3.75l-2.89,16.64h-3.91L253.21,297Z" fill="#fff"/>
        <path d="M284.48,291.33l-1,5.65h4.25l-.54,3.09H283l-2.44,14.52a4.49,4.49,0,0,0,0,1,1.64,1.64,0,0,0,1.83,1.69,11.74,11.74,0,0,0,1.9-.22l-.3,3.26a10.64,10.64,0,0,1-2.85.39,4.08,4.08,0,0,1-3.5-1.72,6.62,6.62,0,0,1-.9-4.5l2.37-14.45h-4.12l.54-3.09h4.12l1-5.65Z" fill="#fff"/>
        <path d="M304.05,300.54l-1.83-.19a6.7,6.7,0,0,0-5.92,3.38l-2.87,16.6h-3.9L293.59,297l3.77,0-.58,2.72a6.63,6.63,0,0,1,7.7-2.85Z" fill="#fff"/>
        <path d="M318.36,296.55a8.41,8.41,0,0,1,5,1.6,9.07,9.07,0,0,1,3.09,4.28,13.2,13.2,0,0,1,.68,6l0,.47a15.62,15.62,0,0,1-2,6.16,11.92,11.92,0,0,1-4.18,4.28,10.23,10.23,0,0,1-5.64,1.45,8.39,8.39,0,0,1-5-1.6,8.85,8.85,0,0,1-3.08-4.23,13.82,13.82,0,0,1-.69-5.89,15.84,15.84,0,0,1,2-6.51,12.16,12.16,0,0,1,4.22-4.48A10,10,0,0,1,318.36,296.55Zm-7.94,12.51a13.38,13.38,0,0,0,0,2.83,6.91,6.91,0,0,0,1.52,4.06,4.57,4.57,0,0,0,3.49,1.57,6.29,6.29,0,0,0,3.58-1,8.06,8.06,0,0,0,2.76-3.09,13.19,13.19,0,0,0,1.45-4.6,21.41,21.41,0,0,0,.06-3.34,7.26,7.26,0,0,0-1.57-4.13,4.71,4.71,0,0,0-3.5-1.59,6.37,6.37,0,0,0-5.14,2.37,11.82,11.82,0,0,0-2.61,6.39Z" fill="#fff"/>
        <path d="M332.33,308.61a18,18,0,0,1,2-6.43,11.11,11.11,0,0,1,3.78-4.29,8.63,8.63,0,0,1,4.94-1.36,7.29,7.29,0,0,1,6,2.85l2.25-12.19h3.9l-5.74,33.14h-3.56l.41-2.51a8.57,8.57,0,0,1-6.81,2.94,6.44,6.44,0,0,1-5.16-2.54,11,11,0,0,1-2.07-6.57A19.42,19.42,0,0,1,332.33,308.61Zm3.75,2.23a8.11,8.11,0,0,0,1.1,4.79,4,4,0,0,0,3.41,1.74c2.26.1,4.26-1,6-3.4l1.86-10.78a4.85,4.85,0,0,0-4.71-3.27,5.9,5.9,0,0,0-4.07,1.39,9,9,0,0,0-2.67,4.07A16.7,16.7,0,0,0,336.08,310.84Z" fill="#fff"/>
        <path d="M371.56,318a9,9,0,0,1-7,2.74,5.82,5.82,0,0,1-4.95-2.4,9.13,9.13,0,0,1-1.2-6.3l2.5-15.08h3.91l-2.53,15.15a10.46,10.46,0,0,0,0,1.85,3.83,3.83,0,0,0,.93,2.44,3.14,3.14,0,0,0,2.28.95A7,7,0,0,0,372,314l2.93-17h3.91l-4.06,23.35h-3.69Z" fill="#fff"/>
        <path d="M391.58,317.52a5.93,5.93,0,0,0,3.78-1.22,5.76,5.76,0,0,0,2.2-3.31l3.69,0a8.32,8.32,0,0,1-1.76,4,10.14,10.14,0,0,1-8.08,3.78,8.39,8.39,0,0,1-4.93-1.52,8.63,8.63,0,0,1-3-4.12,13.84,13.84,0,0,1-.64-5.95l.11-1.08a15.38,15.38,0,0,1,2-6,11.33,11.33,0,0,1,4.06-4.13,10.06,10.06,0,0,1,5.52-1.39,7.92,7.92,0,0,1,5.87,2.46,8.54,8.54,0,0,1,2.2,6l-3.65,0a5.59,5.59,0,0,0-1.27-3.7,4.46,4.46,0,0,0-3.32-1.5,6.2,6.2,0,0,0-5.06,2.26,11.86,11.86,0,0,0-2.52,6.52l-.06.56a18,18,0,0,0,0,2.85,6.5,6.5,0,0,0,1.42,4A4.55,4.55,0,0,0,391.58,317.52Z" fill="#fff"/>
        <path d="M415.84,291.33l-1,5.65h4.25l-.54,3.09h-4.23l-2.44,14.52a5.14,5.14,0,0,0,0,1,1.65,1.65,0,0,0,1.84,1.69,11.64,11.64,0,0,0,1.89-.22l-.3,3.26a10.54,10.54,0,0,1-2.85.39A4.07,4.07,0,0,1,409,319a6.62,6.62,0,0,1-.91-4.5l2.38-14.45h-4.12l.53-3.09H411l1-5.65Z" fill="#fff"/>
        <path d="M425.12,320.33h-3.88L425.3,297h3.88Zm3.22-31.87a2.15,2.15,0,0,1,1.65.59,2.22,2.22,0,0,1,.66,1.67,2.42,2.42,0,0,1-.66,1.67,2.36,2.36,0,0,1-1.65.69,2.1,2.1,0,0,1-2.29-2.23,2.47,2.47,0,0,1,.65-1.68A2.31,2.31,0,0,1,428.34,288.46Z" fill="#fff"/>
        <path d="M441.14,314.87,449.55,297h4.12l-11.76,23.35h-3L434.36,297h3.84Z" fill="#fff"/>
        <path d="M464.88,320.76a8.41,8.41,0,0,1-6.82-3.22,11,11,0,0,1-2.07-8l.11-.93a15.45,15.45,0,0,1,2.06-6.34,11.9,11.9,0,0,1,4.13-4.33,9.66,9.66,0,0,1,5.26-1.39,7.47,7.47,0,0,1,5.66,2.39,9.9,9.9,0,0,1,2.24,6.26,18.86,18.86,0,0,1-.09,2.81l-.23,1.79H459.87a7.85,7.85,0,0,0,1.05,5.39,5,5,0,0,0,4.28,2.31q3.45.09,6.39-3.11l2.24,1.9a10.23,10.23,0,0,1-3.78,3.31A10.72,10.72,0,0,1,464.88,320.76Zm2.48-20.95a5.67,5.67,0,0,0-4.22,1.64,11.64,11.64,0,0,0-2.86,5.07l11.35,0,.09-.35a6.36,6.36,0,0,0-.88-4.52A4.09,4.09,0,0,0,467.36,299.81Z" fill="#fff"/>
      </g>
      <g>
        <path d="M121.74,357.9a18.3,18.3,0,0,1,2-6.43,11.19,11.19,0,0,1,3.78-4.29,8.66,8.66,0,0,1,4.94-1.36,7.32,7.32,0,0,1,6,2.85l2.24-12.19h3.91l-5.74,33.14h-3.56l.41-2.5a8.61,8.61,0,0,1-6.82,2.93,6.44,6.44,0,0,1-5.16-2.54,11,11,0,0,1-2.07-6.57A22.28,22.28,0,0,1,121.74,357.9Zm3.75,2.23a8.11,8.11,0,0,0,1.11,4.79,4,4,0,0,0,3.4,1.74q3.39.15,6-3.4l1.85-10.78a4.83,4.83,0,0,0-4.7-3.27,5.89,5.89,0,0,0-4.07,1.39,9.05,9.05,0,0,0-2.68,4.07A17,17,0,0,0,125.49,360.13Z" fill="#fff"/>
        <path d="M156.25,370.05a8.41,8.41,0,0,1-6.82-3.22,11,11,0,0,1-2.07-8l.1-.93a15.75,15.75,0,0,1,2.06-6.34,12,12,0,0,1,4.14-4.33,9.66,9.66,0,0,1,5.26-1.39,7.42,7.42,0,0,1,5.65,2.4,9.82,9.82,0,0,1,2.25,6.25,18.86,18.86,0,0,1-.09,2.81l-.24,1.79H151.24a7.85,7.85,0,0,0,1,5.39,5,5,0,0,0,4.28,2.31q3.45.09,6.39-3.11l2.24,1.9a10.18,10.18,0,0,1-3.79,3.31A10.68,10.68,0,0,1,156.25,370.05Zm2.48-20.95a5.71,5.71,0,0,0-4.22,1.64,11.6,11.6,0,0,0-2.86,5.07l11.35,0,.09-.34a6.39,6.39,0,0,0-.88-4.52A4.07,4.07,0,0,0,158.73,349.1Z" fill="#fff"/>
        <path d="M196.78,360.79h-5.4l-3.23,8.83H185l3.21-8.83h-5l.52-3h5.5l2.76-7.66h-5.35l.52-3h5.91l3.28-9h3.13l-3.3,9h5.41l3.28-9h3.15l-3.3,9H209l-.52,3h-4.79L201,357.82h4.66l-.51,3H199.9l-3.21,8.83h-3.15Zm-4.36-3h5.39l2.79-7.66h-5.4Z" fill="#fff"/>
        <path d="M228.89,361.4H216.16l-4.3,8.22h-4.33l17.06-31.42h3.56l6.22,31.42h-4ZM218,358h10.33l-2.61-14.65Z" fill="#fff"/>
        <path d="M253.79,349.83l-1.83-.19a6.66,6.66,0,0,0-5.91,3.39l-2.87,16.59h-3.91l4.06-23.35,3.77,0-.58,2.72a7,7,0,0,1,5.85-3.17,7.37,7.37,0,0,1,1.85.32Z" fill="#fff"/>
        <path d="M256.26,357.9a18.1,18.1,0,0,1,2-6.43,11.11,11.11,0,0,1,3.78-4.29,8.63,8.63,0,0,1,4.94-1.36,7.29,7.29,0,0,1,6,2.85l2.25-12.19h3.9l-5.74,33.14h-3.56l.41-2.5a8.59,8.59,0,0,1-6.81,2.93,6.44,6.44,0,0,1-5.16-2.54,11,11,0,0,1-2.07-6.57A19.46,19.46,0,0,1,256.26,357.9Zm3.75,2.23a8.11,8.11,0,0,0,1.1,4.79,4,4,0,0,0,3.41,1.74c2.26.1,4.26-1,6-3.4l1.86-10.78a4.85,4.85,0,0,0-4.71-3.27,5.9,5.9,0,0,0-4.07,1.39,9,9,0,0,0-2.67,4.07A16.75,16.75,0,0,0,260,360.13Z" fill="#fff"/>
        <path d="M290.76,370.05a8.43,8.43,0,0,1-6.82-3.22,11,11,0,0,1-2.07-8l.11-.93a15.45,15.45,0,0,1,2.06-6.34,12.06,12.06,0,0,1,4.13-4.33,9.69,9.69,0,0,1,5.27-1.39,7.43,7.43,0,0,1,5.65,2.4,9.82,9.82,0,0,1,2.24,6.25,17.6,17.6,0,0,1-.08,2.81l-.24,1.79H285.76a7.85,7.85,0,0,0,1,5.39,5,5,0,0,0,4.29,2.31,8.28,8.28,0,0,0,6.38-3.11l2.24,1.9a10.08,10.08,0,0,1-3.78,3.31A10.72,10.72,0,0,1,290.76,370.05Zm2.48-20.95a5.71,5.71,0,0,0-4.22,1.64,11.6,11.6,0,0,0-2.85,5.07l11.34,0,.09-.34a6.39,6.39,0,0,0-.87-4.52A4.1,4.1,0,0,0,293.24,349.1Z" fill="#fff"/>
        <path d="M309,369.62h-3.89l5.74-33.14h3.91Z" fill="#fff"/>
        <path d="M326.59,370.05a8.41,8.41,0,0,1-6.82-3.22,11,11,0,0,1-2.07-8l.11-.93a15.45,15.45,0,0,1,2.06-6.34,12,12,0,0,1,4.13-4.33,9.66,9.66,0,0,1,5.26-1.39,7.44,7.44,0,0,1,5.66,2.4,9.87,9.87,0,0,1,2.24,6.25,18.86,18.86,0,0,1-.09,2.81l-.23,1.79H321.58a7.85,7.85,0,0,0,1.05,5.39,5,5,0,0,0,4.28,2.31q3.45.09,6.39-3.11l2.24,1.9a10.23,10.23,0,0,1-3.78,3.31A10.72,10.72,0,0,1,326.59,370.05Zm2.48-20.95a5.71,5.71,0,0,0-4.22,1.64,11.7,11.7,0,0,0-2.86,5.07l11.35,0,.09-.34a6.34,6.34,0,0,0-.88-4.52A4.07,4.07,0,0,0,329.07,349.1Z" fill="#fff"/>
        <path d="M348.3,346.25l-.56,3a9.21,9.21,0,0,1,7.16-3.37,5.8,5.8,0,0,1,4.88,2.29c1.05,1.46,1.44,3.53,1.16,6.19l-2.54,15.3h-3.91l2.57-15.35a8.61,8.61,0,0,0,0-2q-.36-3-3.56-3.08-3.51-.06-6.17,3.75l-2.89,16.64h-3.91l4.06-23.35Z" fill="#fff"/>
        <path d="M375.66,370.05a8.43,8.43,0,0,1-6.82-3.22,11,11,0,0,1-2.07-8l.11-.93a15.6,15.6,0,0,1,2.06-6.34,12.06,12.06,0,0,1,4.13-4.33,9.69,9.69,0,0,1,5.27-1.39,7.43,7.43,0,0,1,5.65,2.4,9.82,9.82,0,0,1,2.25,6.25,18.86,18.86,0,0,1-.09,2.81l-.24,1.79H370.66a7.91,7.91,0,0,0,1,5.39,5,5,0,0,0,4.29,2.31,8.28,8.28,0,0,0,6.38-3.11l2.25,1.9a10.18,10.18,0,0,1-3.79,3.31A10.72,10.72,0,0,1,375.66,370.05Zm2.48-20.95a5.68,5.68,0,0,0-4.21,1.64,11.51,11.51,0,0,0-2.86,5.07l11.35,0,.08-.34a6.39,6.39,0,0,0-.87-4.52A4.1,4.1,0,0,0,378.14,349.1Z" fill="#fff"/>
        <path d="M394,366.36h13.12l-.59,3.26h-18l.54-3.13,15.3-16.92H392.2l.6-3.3H410l-.51,3Z" fill="#fff"/>
        <path d="M426.53,369.62a5.3,5.3,0,0,1-.15-1.23l.06-1.23a9.57,9.57,0,0,1-6.82,2.89,7,7,0,0,1-5-1.95,5.9,5.9,0,0,1-1.76-4.78,7.19,7.19,0,0,1,3.25-5.8,13.88,13.88,0,0,1,8-2.08l4.08,0,.26-1.85a4.28,4.28,0,0,0-.81-3.31,3.91,3.91,0,0,0-3.08-1.27,6,6,0,0,0-3.55,1,4.16,4.16,0,0,0-1.89,2.7l-3.92,0a6.3,6.3,0,0,1,1.59-3.64,9.27,9.27,0,0,1,3.61-2.46,11.65,11.65,0,0,1,4.55-.83,7.76,7.76,0,0,1,5.68,2.21,6.85,6.85,0,0,1,1.7,5.64l-1.9,11.57-.11,1.66a8.15,8.15,0,0,0,.26,2.35l0,.37Zm-6.13-3a6.76,6.76,0,0,0,3.55-.9,8.79,8.79,0,0,0,2.88-2.6l.84-4.81-2.95,0a11.3,11.3,0,0,0-5.66,1.16,4.29,4.29,0,0,0-2.22,3.31,3.32,3.32,0,0,0,.77,2.72A3.64,3.64,0,0,0,420.4,366.6Zm12.84-29.26a6.18,6.18,0,0,1-2.1,4.28,6.49,6.49,0,0,1-4.61,1.5,5.91,5.91,0,0,1-4.24-1.62,5.47,5.47,0,0,1-1.54-4.18l3.17,0q-.15,3.15,2.63,3.24a3.17,3.17,0,0,0,2.42-.9,4.36,4.36,0,0,0,1.14-2.32Z" fill="#fff"/>
      </g>
    </g>
    <g>
      <g>
        <path d="M506.56,150.84q6.49-15.71,17.67-25.43a47.37,47.37,0,0,1,25.34-11.6q14.17-1.84,29.58,4.52,23.55,9.75,31.09,30t-2.86,45.3l-.48,1.17Q596.76,219.26,577.18,228t-42.84-.87Q512,217.9,504,198.86t.42-42.46Zm31.81,15.55q-6,14.54-4.26,23.21T544.77,202q17.44,7.23,29-19.46l1.36-3.29q11.67-28.22-6.36-35.67-16.38-6.78-27.8,17Z" fill="#d10776"/>
        <path d="M610.24,148.28q-7.54-20.21-31.09-29.95-15.42-6.37-29.58-4.52a47.37,47.37,0,0,0-25.34,11.6q-11.18,9.74-17.67,25.43l-2.19,5.56q-8.44,23.41-.42,42.46t30.39,28.29q23.26,9.63,42.84.87t29.72-33.27l.48-1.17Q617.77,168.49,610.24,148.28Zm-33,24.95c-.62,1.91-1.34,3.89-2.2,6l-1.36,3.29Q564,205,550.11,203.35c-11.1,5.23-26.21.44-32.1-10.35-9.24-16.93-3.94-35.79,8.16-49.67,11.69-13.39,27-18.73,44.34-19.35,14.12-.5,24.61,12,25.21,25.21C596.23,160.7,587.68,170.05,577.28,173.23Z" fill="#ff0068"/>
        <path d="M121.05,225.08H84.34V72.36h36.71Z" fill="#ff0068"/>
        <path d="M182.31,225.08H146.85V64h35.46Z" fill="#ff0068"/>
        <path d="M199.61,167.5q0-27,11.64-42.48t32.52-15.53q15.21,0,25.59,12V64h35.46V225.08H273l-1.79-12.17q-10.9,14.26-27.69,14.27-20.25,0-32.1-15.53T199.61,167.5ZM235,169.7q0,30.21,17.63,30.21,11.73,0,16.77-9.86V146.83q-4.82-10.07-16.57-10.07-16.35,0-17.72,26.44Z" fill="#ff0068"/>
        <path d="M324.64,82.33A15.8,15.8,0,0,1,330.09,70q5.46-4.82,14.16-4.82T358.42,70a15.8,15.8,0,0,1,5.45,12.38,15.78,15.78,0,0,1-5.45,12.37q-5.46,4.83-14.17,4.83T330.09,94.7A15.78,15.78,0,0,1,324.64,82.33Zm37.55,142.75H326.74V111.59h35.45Z" fill="#ff0068"/>
        <path d="M429.53,182.81l-10,10v32.3H384.22V63.87h35.35v85.59l3.56-4.72,26.64-33.15h42.38L452.4,158.27l42.37,66.81H454.28Z" fill="#ff0068"/>
      </g>
      <path d="M501.53,146.43q6.5-15.7,17.68-25.43a47.33,47.33,0,0,1,25.34-11.6q14.18-1.84,29.57,4.52,23.55,9.75,31.09,30t-2.85,45.3l-.48,1.17q-10.15,24.51-29.73,33.27t-42.83-.86q-22.38-9.27-30.4-28.3t.43-42.45ZM533.35,162q-6,14.53-4.27,23.21t10.67,12.36q17.44,7.22,29-19.47l1.36-3.29q11.67-28.2-6.36-35.67-16.38-6.78-27.8,17Z" fill="#f15a24"/>
    </g>
  </g>
</svg>
